<svg width="60" height="60" viewBox="0 0 60 60" fill="none" xmlns="http://www.w3.org/2000/svg">
<path id="Vector" d="M3.33333 0H56.6667C57.5507 0 58.3986 0.351189 59.0237 0.976311C59.6488 1.60143 60 2.44928 60 3.33333V56.6667C60 57.5507 59.6488 58.3986 59.0237 59.0237C58.3986 59.6488 57.5507 60 56.6667 60H3.33333C2.44928 60 1.60143 59.6488 0.976311 59.0237C0.351189 58.3986 0 57.5507 0 56.6667V3.33333C0 2.44928 0.351189 1.60143 0.976311 0.976311C1.60143 0.351189 2.44928 0 3.33333 0ZM6.66667 6.66667V53.3333H53.3333V6.66667H6.66667ZM26.6667 32.64C24.912 31.8742 23.4745 30.5276 22.5959 28.8266C21.7174 27.1256 21.4513 25.1739 21.8424 23.2998C22.2336 21.4257 23.2581 19.7434 24.7438 18.5358C26.2294 17.3282 28.0855 16.669 30 16.669C31.9145 16.669 33.7706 17.3282 35.2562 18.5358C36.7419 19.7434 37.7664 21.4257 38.1576 23.2998C38.5487 25.1739 38.2826 27.1256 37.404 28.8266C36.5255 30.5276 35.088 31.8742 33.3333 32.64V43.3333H26.6667V32.64Z" fill="#FFC266"/>
</svg>
