<svg width="45" height="44" viewBox="0 0 45 44" fill="none" xmlns="http://www.w3.org/2000/svg">
<path id="Vector" d="M41.25 0H3.75C1.6875 0 0 2.2 0 4.88889V39.1111C0 41.8 1.6875 44 3.75 44H41.25C43.3125 44 44.9813 41.8 44.9813 39.1111L45 4.88889C45 2.2 43.3125 0 41.25 0ZM41.25 39.1111H3.75V4.88889H41.25V39.1111ZM35.6437 36.6422L39.375 31.7778L36.5438 26.8889H33.4688C33.0563 25.3489 32.8125 23.7111 32.8125 22C32.8125 20.2889 33.0563 18.6511 33.4688 17.1111H36.5438L39.375 12.2222L35.6437 7.35778C33.1558 9.7798 31.3553 13.2105 30.525 17.1111C30.1875 18.6756 30 20.3133 30 22C30 23.6867 30.1875 25.3244 30.525 26.8889C31.3602 30.7865 33.1597 34.2153 35.6437 36.6422ZM16.875 22C19.9688 22 22.5 18.7 22.5 14.6667C22.5 10.6333 19.9688 7.33333 16.875 7.33333C13.7812 7.33333 11.25 10.6333 11.25 14.6667C11.25 18.7 13.7812 22 16.875 22ZM16.875 12.2222C17.9062 12.2222 18.75 13.3222 18.75 14.6667C18.75 16.0111 17.9062 17.1111 16.875 17.1111C15.8438 17.1111 15 16.0111 15 14.6667C15 13.3222 15.8438 12.2222 16.875 12.2222ZM28.125 33.22C28.125 27.1089 20.6812 24.4689 16.875 24.4689C13.0688 24.4689 5.625 27.1089 5.625 33.22V36.6667H28.125V33.22ZM10.275 31.7778C11.6625 30.5556 14.4375 29.3333 16.875 29.3333C19.3125 29.3333 22.0688 30.5311 23.475 31.7778H10.275Z" fill="white"/>
</svg>
