<svg width="45" height="60" viewBox="0 0 45 60" fill="none" xmlns="http://www.w3.org/2000/svg">
<path id="Vector" d="M22.5 0L19.6875 3.06197C19.6875 3.06197 14.8875 8.34751 10.05 15.2005C5.2125 22.0535 0 30.2552 0 38.1288C0 43.9294 2.37053 49.4924 6.5901 53.5941C10.8097 57.6957 16.5326 60 22.5 60C28.4674 60 34.1903 57.6957 38.4099 53.5941C42.6295 49.4924 45 43.9294 45 38.1288C45 30.2552 39.7875 22.0535 34.95 15.2005C31.9663 10.9875 28.749 6.93532 25.3125 3.06197L22.5 0ZM22.5 11.4095C24.15 13.305 25.65 14.8724 28.8 19.3196C33.3375 25.7351 37.5 33.9004 37.5 38.1288C37.5 46.2211 30.825 52.7096 22.5 52.7096C14.175 52.7096 7.5 46.2211 7.5 38.1288C7.5 33.9004 11.6625 25.7351 16.2 19.3196C19.35 14.8724 20.85 13.305 22.5 11.4095Z" fill="#FFC266"/>
</svg>
