<svg width="50" height="60" viewBox="0 0 50 60" fill="none" xmlns="http://www.w3.org/2000/svg">
<path id="Vector" d="M25 60C27.0468 60 28.0702 59.1797 28.0702 57.5391V49.8047C34.2105 49.2578 39.23 47.5 43.1287 44.5312C47.7095 41.0938 50 36.25 50 30C50 28.2031 49.9025 26.875 49.7076 26.0156C50.0975 25 49.9513 24.1797 49.269 23.5547L48.9766 23.2031C48.0019 19.9219 46.4425 16.8359 44.2982 13.9453C42.154 11.0547 39.7661 8.67188 37.1345 6.79688C34.5029 4.92188 32.4318 3.51562 30.9211 2.57812C29.4103 1.64062 28.0702 0.898438 26.9006 0.351562L26.6082 0.234375L25.8772 0H24.1228L23.3918 0.234375C23.0994 0.3125 22.3684 0.644531 21.1988 1.23047C20.0292 1.81641 18.4454 2.77344 16.4474 4.10156C14.4493 5.42969 12.4756 6.95312 10.5263 8.67188C8.577 10.3906 6.70078 12.5391 4.89766 15.1172C3.09454 17.6953 1.80312 20.3906 1.02339 23.2031L0.730994 23.5547C0.048733 24.1797 -0.0974659 25 0.292398 26.0156C0.0974659 26.875 0 28.2031 0 30C0 36.25 2.29045 41.0938 6.87134 44.5312C10.77 47.5 15.7895 49.2578 21.9298 49.8047V57.5391C21.9298 59.1797 22.9532 60 25 60ZM28.0702 7.03125C31.5789 9.21875 34.5029 11.5234 36.8421 13.9453L28.0702 19.8047V7.03125ZM28.0702 26.25L40.3509 18.5156C40.9357 19.375 41.7641 21.2891 42.8363 24.2578L28.0702 32.6953V26.25ZM28.0702 38.7891L43.7134 29.7656V30C43.7134 34.9219 42.0565 38.5938 38.7427 41.0156C35.9162 42.9688 32.3587 44.2969 28.0702 45V38.7891ZM21.9298 7.03125V19.8047L13.1579 14.2969C14.6199 12.5 17.5439 10.0781 21.9298 7.03125ZM9.64912 18.5156L21.9298 26.25V32.6953L7.16374 24.2578C7.846 22.3047 8.67446 20.3906 9.64912 18.5156ZM11.2573 41.0156C7.94347 38.3594 6.28655 34.6875 6.28655 30V29.7656L21.9298 38.7891V44.7656C17.9337 44.4531 14.3762 43.2031 11.2573 41.0156Z" fill="#FFC266"/>
</svg>
