<svg width="70" height="60" viewBox="0 0 70 60" fill="none" xmlns="http://www.w3.org/2000/svg">
<path id="Vector" d="M47.2479 52.5012L42.0012 52.507V48.75H28.0013V52.5246L22.7535 52.5305C21.7888 52.5316 21.0068 53.3695 21.0057 54.4043L21.0002 58.1227C20.9991 59.1598 21.7844 60.0012 22.7524 60L47.2479 59.9695C48.2126 59.9684 48.9946 59.1305 48.9957 58.0969L49 54.3785C49.0011 53.3414 48.2158 52.5 47.2479 52.5012ZM64.0062 3.13359C63.7196 1.32539 62.2332 0 60.4909 0H9.50827C7.76594 0 6.27954 1.32539 5.99298 3.13359C-0.36276 43.2609 0.00473783 40.7906 0.00364409 41.25C0.000362863 43.2797 1.5666 45 3.56925 45H66.431C68.4249 45 69.9868 43.2938 69.9955 41.2746C69.9977 40.7965 70.3619 43.2609 64.0062 3.13359ZM28.4191 7.5H41.5801L42.6487 18.75H27.3505L28.4191 7.5ZM20.1974 37.5H7.77578L9.85499 24.375H21.4454L20.1974 37.5ZM21.9791 18.75H10.7453L12.527 7.5H23.0477L21.9791 18.75ZM25.5688 37.5L26.8157 24.375H43.1835L44.4304 37.5H25.5688ZM46.9515 7.5H57.4722L59.2539 18.75H48.0201L46.9515 7.5ZM49.8018 37.5L48.5549 24.375H60.1453L62.2245 37.5H49.8018Z" fill="#FFC266"/>
</svg>
