<svg width="24" height="24" viewBox="0 0 24 24" fill="none" xmlns="http://www.w3.org/2000/svg">
<g id="solar:phone-calling-broken">
<path id="Vector" d="M13.5 3C13.5 3 15.834 3.212 18.803 6.182C21.773 9.152 21.985 11.485 21.985 11.485M14.207 6.536C14.207 6.536 15.197 6.818 16.682 8.303C18.167 9.788 18.45 10.778 18.45 10.778" stroke="white" stroke-width="1.5" stroke-linecap="round"/>
<path id="Vector_2" d="M15.556 15.547L15.012 15.031L15.556 15.548V15.547ZM19.002 21.254L18.457 20.737L19.001 21.254H19.002ZM17.676 21.964L17.75 22.709L17.676 21.963V21.964ZM3.75202 7.92503C3.74671 7.82667 3.72207 7.73032 3.67951 7.64148C3.63696 7.55264 3.57732 7.47306 3.50401 7.40727C3.4307 7.34148 3.34514 7.29077 3.25224 7.25804C3.15933 7.22532 3.06088 7.21121 2.96252 7.21653C2.86416 7.22185 2.76781 7.24649 2.67898 7.28904C2.59014 7.33159 2.51055 7.39123 2.44476 7.46454C2.37897 7.53785 2.32827 7.62341 2.29554 7.71631C2.26281 7.80922 2.24871 7.90767 2.25402 8.00603L3.75202 7.92503ZM4.71802 4.09203C4.58669 4.23717 4.5173 4.4279 4.52467 4.6235C4.53205 4.8191 4.6156 5.00407 4.75749 5.13891C4.89938 5.27375 5.08836 5.34778 5.28408 5.34518C5.47981 5.34259 5.66676 5.26358 5.80502 5.12503L4.71802 4.09203ZM10.664 20.812C10.7474 20.8658 10.8407 20.9024 10.9383 20.9199C11.036 20.9374 11.1361 20.9353 11.233 20.9137C11.3299 20.8922 11.4215 20.8517 11.5026 20.7945C11.5836 20.7373 11.6526 20.6646 11.7053 20.5806C11.7581 20.4966 11.7937 20.403 11.8101 20.3051C11.8264 20.2073 11.8232 20.1071 11.8005 20.0105C11.7779 19.9139 11.7363 19.8228 11.6782 19.7424C11.6201 19.6619 11.5466 19.5938 11.462 19.542L10.664 20.812ZM15.113 21.058C14.9182 21.0173 14.7152 21.0557 14.5487 21.1646C14.3822 21.2736 14.2657 21.4442 14.225 21.639C14.1843 21.8338 14.2227 22.0368 14.3316 22.2034C14.4406 22.3699 14.6112 22.4863 14.806 22.527L15.113 21.058ZM15.645 16.544L16.1 16.064L15.012 15.031L14.557 15.511L15.645 16.544ZM17.599 15.862L19.509 16.962L20.257 15.662L18.347 14.562L17.599 15.862ZM19.878 19.242L18.457 20.737L19.545 21.771L20.965 20.275L19.878 19.242ZM8.35902 16.959C4.48302 12.878 3.83302 9.43503 3.75202 7.92503L2.25402 8.00603C2.35402 9.85603 3.13802 13.64 7.27202 17.992L8.35902 16.959ZM9.73502 10.322L10.021 10.02L8.93402 8.98703L8.64702 9.28903L9.73502 10.322ZM10.247 6.26003L8.98602 4.47703L7.76102 5.34303L9.02102 7.12603L10.247 6.26003ZM9.19002 9.80503C9.01005 9.63158 8.82837 9.45991 8.64502 9.29003L8.64302 9.29203L8.64002 9.29503C8.62227 9.3134 8.60558 9.33276 8.59002 9.35303C8.492 9.48278 8.41443 9.62678 8.36002 9.78003C8.26202 10.055 8.21002 10.419 8.27602 10.873C8.40602 11.765 8.99102 12.964 10.518 14.573L11.606 13.539C10.178 12.036 9.82602 11.111 9.76002 10.655C9.72802 10.435 9.76002 10.32 9.77302 10.283L9.78102 10.264C9.77284 10.2772 9.76347 10.2896 9.75302 10.301C9.74716 10.3078 9.74116 10.3155 9.73502 10.322L9.19002 9.80503ZM10.518 14.572C12.041 16.176 13.191 16.806 14.068 16.949C14.519 17.022 14.884 16.963 15.16 16.854C15.3129 16.794 15.4551 16.7096 15.581 16.604L15.617 16.57L15.631 16.556C15.6334 16.5541 15.6357 16.5521 15.638 16.55L15.641 16.547L15.642 16.545C15.642 16.545 15.644 16.544 15.1 16.027C14.556 15.511 14.557 15.51 14.557 15.509L14.559 15.508L14.561 15.505L14.567 15.5C14.5821 15.4854 14.5978 15.4714 14.614 15.458C14.623 15.452 14.622 15.454 14.609 15.459C14.589 15.467 14.499 15.499 14.309 15.468C13.907 15.402 13.039 15.048 11.606 13.539L10.518 14.572ZM8.98602 4.47703C7.97202 3.04303 5.94402 2.80003 4.71802 4.09203L5.80502 5.12503C6.32802 4.57503 7.24902 4.61803 7.76102 5.34303L8.98602 4.47703ZM18.457 20.737C18.178 21.031 17.887 21.189 17.603 21.217L17.75 22.709C18.497 22.636 19.102 22.238 19.545 21.771L18.457 20.738V20.737ZM10.021 10.02C10.989 9.00103 11.057 7.40703 10.247 6.26003L9.02202 7.12603C9.44402 7.72303 9.37902 8.51903 8.93402 8.98703L10.021 10.02ZM19.509 16.962C20.33 17.435 20.491 18.597 19.878 19.242L20.965 20.275C22.27 18.901 21.889 16.602 20.257 15.662L19.509 16.962ZM16.1 16.064C16.485 15.658 17.086 15.567 17.599 15.862L18.347 14.562C17.248 13.93 15.887 14.111 15.012 15.031L16.1 16.064ZM11.462 19.542C10.479 18.924 9.43202 18.088 8.35902 16.959L7.27202 17.992C8.42602 19.207 9.56902 20.124 10.664 20.812L11.462 19.542ZM17.602 21.217C16.7691 21.2902 15.9299 21.2366 15.113 21.058L14.806 22.527C15.7725 22.7364 16.7651 22.7977 17.75 22.709L17.603 21.217H17.602Z" fill="white"/>
</g>
</svg>
