<svg width="60" height="60" viewBox="0 0 60 60" fill="none" xmlns="http://www.w3.org/2000/svg">
<path id="Vector" d="M45.8654 0.0308948C45.3485 0.0864377 44.8654 0.314816 44.4946 0.679022L30 15.1685L22.4285 7.59623C22.2103 7.3783 21.9513 7.20545 21.6662 7.08757C21.3812 6.96968 21.0757 6.90906 20.7673 6.90917C20.4588 6.90927 20.1534 6.97011 19.8684 7.08819C19.5835 7.20627 19.3246 7.3793 19.1065 7.59738C18.6662 8.03782 18.4189 8.63507 18.4191 9.25773C18.4192 9.56604 18.4801 9.87131 18.5982 10.1561C18.7164 10.4409 18.8895 10.6997 19.1077 10.9176L26.6815 18.4829H6.92308C5.08696 18.4829 3.32605 19.2119 2.02772 20.5096C0.729393 21.8073 0 23.5673 0 25.4024L0 53.0805C0 54.9157 0.729393 56.6757 2.02772 57.9733C3.32605 59.271 5.08696 60 6.92308 60H53.0769C54.913 60 56.674 59.271 57.9723 57.9733C59.2706 56.6757 60 54.9157 60 53.0805V25.4024C60 23.5673 59.2706 21.8073 57.9723 20.5096C56.674 19.2119 54.913 18.4829 53.0769 18.4829H33.3162L47.8131 3.99577C48.1762 3.65833 48.421 3.21294 48.5111 2.72559C48.6012 2.23824 48.5318 1.73484 48.3133 1.28997C48.0948 0.845096 47.7387 0.482409 47.2978 0.255633C46.8569 0.0288568 46.3546 -0.049947 45.8654 0.0308948ZM24.2308 23.0959C41.4115 23.0959 43.8462 23.1444 43.8462 39.2415C43.8462 55.3409 41.2431 55.387 24.2308 55.387C7.14 55.387 4.61538 55.2163 4.61538 39.2415C4.61538 23.2712 7.14 23.0959 24.2308 23.0959ZM51.9231 29.8724C53.9215 29.8724 55.53 31.4778 55.53 33.4752C55.5309 33.9489 55.4382 34.4181 55.2573 34.8559C55.0764 35.2937 54.8107 35.6915 54.4756 36.0264C54.1405 36.3613 53.7425 36.6269 53.3045 36.8077C52.8664 36.9886 52.397 37.0812 51.9231 37.0803C51.4491 37.0815 50.9795 36.9891 50.5413 36.8083C50.1032 36.6276 49.7051 36.3621 49.3699 36.0271C49.0347 35.6921 48.7691 35.2942 48.5882 34.8562C48.4074 34.4183 48.3149 33.949 48.3162 33.4752C48.3152 33.0015 48.4079 32.5323 48.5889 32.0945C48.7698 31.6567 49.0354 31.2589 49.3706 30.924C49.7057 30.5891 50.1037 30.3235 50.5417 30.1427C50.9797 29.9618 51.4492 29.8692 51.9231 29.8701V29.8724ZM51.9231 39.0985C53.9215 39.0985 55.53 40.7038 55.53 42.7012C55.5309 43.1749 55.4382 43.6441 55.2573 44.0819C55.0764 44.5197 54.8107 44.9175 54.4756 45.2524C54.1405 45.5874 53.7425 45.8529 53.3045 46.0337C52.8664 46.2146 52.397 46.3072 51.9231 46.3063C51.4491 46.3075 50.9795 46.2151 50.5413 46.0343C50.1032 45.8536 49.7051 45.5881 49.3699 45.2531C49.0347 44.9181 48.7691 44.5202 48.5882 44.0823C48.4074 43.6443 48.3149 43.175 48.3162 42.7012C48.3152 42.2275 48.4079 41.7583 48.5889 41.3205C48.7698 40.8827 49.0354 40.485 49.3706 40.15C49.7057 39.8151 50.1037 39.5496 50.5417 39.3687C50.9797 39.1879 51.4492 39.0952 51.9231 39.0962V39.0985Z" fill="#FFC266"/>
</svg>
